<svg xmlns="http://www.w3.org/2000/svg" viewBox="0 0 800 1000">
  <rect width="800" height="1000" fill="#fffdf8"/>
  <!-- sun field -->
  <circle cx="400" cy="360" r="230" fill="#ecdfae"/>
  <!-- table -->
  <rect x="80" y="700" width="640" height="30" rx="15" fill="#c8a97c"/>
  <rect x="80" y="730" width="640" height="180" fill="#f3eee4"/>
  <!-- saucer + cup -->
  <ellipse cx="400" cy="700" rx="150" ry="24" fill="#e3d4b4"/>
  <path d="M300 560 L500 560 L478 690 Q474 706 456 706 L344 706 Q326 706 322 690 Z" fill="#f6f1e5"/>
  <path d="M316 580 L484 580 L470 665 L330 665 Z" fill="#6b4a35"/>
  <path d="M500 585 Q560 590 552 630 Q545 665 486 660" fill="none" stroke="#f6f1e5" stroke-width="18"/>
  <!-- steam -->
  <path d="M360 500 Q340 460 360 425 Q380 390 360 350" fill="none" stroke="#a7b1dc" stroke-width="12" stroke-linecap="round"/>
  <path d="M440 500 Q420 460 440 425 Q460 390 440 350" fill="none" stroke="#a7b1dc" stroke-width="12" stroke-linecap="round"/>
  <!-- berry -->
  <circle cx="580" cy="686" r="16" fill="#c9407e"/>
  <circle cx="612" cy="692" r="12" fill="#b23a6f"/>
</svg>
