<svg xmlns="http://www.w3.org/2000/svg" viewBox="0 0 800 1000">
  <rect width="800" height="1000" fill="#c5cce9"/>
  <!-- arch niches -->
  <path d="M120 620 L120 330 Q120 240 220 240 Q320 240 320 330 L320 620 Z" fill="#f6f1e5"/>
  <path d="M480 620 L480 330 Q480 240 580 240 Q680 240 680 330 L680 620 Z" fill="#f6f1e5"/>
  <!-- vase in left niche -->
  <path d="M200 610 L240 610 L232 540 Q252 520 248 480 Q244 448 220 448 Q196 448 192 480 Q188 520 208 540 Z" fill="#8a7a63"/>
  <path d="M220 448 Q214 400 190 380 M220 448 Q228 396 252 376 M220 448 Q220 396 220 366" stroke="#5c6c46" stroke-width="8" fill="none" stroke-linecap="round"/>
  <!-- pendant in right niche -->
  <line x1="580" y1="240" x2="580" y2="360" stroke="#2b2721" stroke-width="6"/>
  <path d="M520 360 Q580 320 640 360 Q640 430 580 430 Q520 430 520 360 Z" fill="#ecdfae"/>
  <!-- bench -->
  <rect x="150" y="700" width="500" height="46" rx="23" fill="#2b2721"/>
  <rect x="180" y="746" width="22" height="120" fill="#2b2721"/>
  <rect x="598" y="746" width="22" height="120" fill="#2b2721"/>
  <!-- cushion -->
  <rect x="330" y="662" width="140" height="42" rx="18" fill="#c9407e"/>
  <!-- floor line -->
  <rect x="0" y="866" width="800" height="134" fill="#aab4dd"/>
</svg>
