<svg xmlns="http://www.w3.org/2000/svg" viewBox="0 0 800 1000">
  <rect width="800" height="1000" fill="#a7b1dc"/>
  <!-- window frame -->
  <rect x="120" y="140" width="560" height="700" rx="14" fill="#f6f1e5"/>
  <rect x="156" y="176" width="488" height="628" rx="6" fill="#c5cce9"/>
  <!-- sky + sun -->
  <circle cx="540" cy="300" r="52" fill="#ecdfae"/>
  <!-- mountains -->
  <path d="M156 620 L300 420 L400 560 L480 470 L644 660 L644 804 L156 804 Z" fill="#8f9ac9"/>
  <path d="M156 700 L260 580 L360 690 L470 590 L644 760 L644 804 L156 804 Z" fill="#6d7ab1"/>
  <!-- lake -->
  <path d="M156 760 Q400 730 644 764 L644 804 L156 804 Z" fill="#5c6a9e"/>
  <!-- mullions -->
  <line x1="400" y1="176" x2="400" y2="804" stroke="#f6f1e5" stroke-width="14"/>
  <line x1="156" y1="490" x2="644" y2="490" stroke="#f6f1e5" stroke-width="14"/>
  <!-- curtain hint -->
  <path d="M120 140 Q170 500 120 840 L120 140 Z" fill="#e8ddc2"/>
  <path d="M680 140 Q630 500 680 840 L680 140 Z" fill="#e8ddc2"/>
</svg>
